<?xml version="1.0" encoding="UTF-8" standalone="no"?><!-- Generator: Gravit.io --><svg xmlns="http://www.w3.org/2000/svg" xmlns:xlink="http://www.w3.org/1999/xlink" style="isolation:isolate" viewBox="218.802 -301.225 1021.194 1020.142" ><defs><clipPath id="_clipPath_J6JM5NeUld1xRORlU7T0n96PMcytNOXB"><rect x="218.802" y="-301.225" width="1021.194" height="1020.142"/></clipPath></defs><g clip-path="url(#_clipPath_J6JM5NeUld1xRORlU7T0n96PMcytNOXB)"><g><g><g><g><path d=" M 290.496 -301.225 L 949.496 -301.225 L 1114.496 -301.225 L 1166.496 -301.225 Q 1206.264 -297.993 1223.996 -272.725 Q 1241.135 -244.202 1238.996 -179.725 L 1238.996 -13.725 L 1238.996 649.275 Q 1234.383 681.161 1214.496 697.775 Q 1183.369 725.647 1115.496 716.775 L 950.496 716.775 L 290.496 716.775 Q 255.409 712.361 237.996 690.275 Q 212.313 659.458 220.996 594.275 L 220.996 428.275 L 220.996 -234.725 Q 225.945 -268.776 248.496 -285.225 Q 264.094 -298.627 290.496 -301.225 Z " fill="rgb(2,115,179)"/><line x1="244.496" y1="-282.225" x2="239.496" y2="-276.225"/><path d=" M 220.496 -229.225 L 220.996 643.275 L 219.996 643.275 L 220.496 -229.225 Z  M 1239.496 -229.225 L 1239.996 643.275 L 1238.996 643.275 L 1239.496 -229.225 Z " fill-rule="evenodd" fill="rgb(3,116,180)"/><path d=" M 438.496 -161.225 Q 493.468 -161.198 515.996 -128.725 Q 537.228 -106.957 534.996 -61.725 Q 528.556 -27.166 506.496 -8.225 Q 484.448 15.727 436.496 13.775 Q 402.729 8.042 383.996 -12.725 Q 359.48 -35.209 359.996 -82.725 Q 366.448 -122.274 392.496 -142.225 Q 409.925 -157.297 438.496 -161.225 Z  M 891.496 68.775 Q 998.999 63.772 1044.996 120.275 Q 1097.949 191.321 1088.996 324.275 L 1088.996 565.275 L 938.496 565.775 L 937.996 359.275 L 936.996 289.275 Q 934.792 242.479 910.496 217.775 Q 890.428 197.842 847.496 200.775 Q 810.048 204.326 791.996 227.275 Q 769.982 254.761 768.496 302.775 L 767.996 369.275 L 767.496 565.775 L 617.996 565.275 L 618.496 80.775 L 761.996 81.275 L 762.496 146.775 L 764.996 146.275 C 789.228 98.633 840.407 74.673 891.496 68.775 L 891.496 68.775 Z  M 372.496 80.775 L 521.996 81.275 L 521.496 565.775 L 371.996 565.275 L 372.496 80.775 Z " fill-rule="evenodd" fill="rgb(253,253,253)"/><path d=" M 238.496 690.775 L 246.496 699.775 L 238.496 690.775 Z  M 1221.496 690.775 L 1214.496 698.775 L 1221.496 690.775 Z " fill-rule="evenodd" fill="rgb(3,116,180)"/></g></g></g></g></g></svg>