
<svg viewBox="0 0 63 83" version="1.1" xmlns="http://www.w3.org/2000/svg" xmlns:xlink="http://www.w3.org/1999/xlink">
    <g id="Page-1" stroke="none" stroke-width="1" fill="none" fill-rule="evenodd">
        <g id="Desktop" transform="translate(-1339.000000, -635.000000)" fill-rule="nonzero">
            <g id="Group" transform="translate(787.000000, 280.000000)">
                <g id="iconfinder_icon-80-document-checked_314763" transform="translate(552.000000, 355.000000)">
                    <path d="M31,0 L37.2272727,0 C40.7215357,6.34819881 43.2914032,10.4733447 44.9368752,12.3754376 C47.7922453,15.6761192 50.9496506,18.2291342 54.4090909,20.0344828 L54.4090909,26 L31,26 L31,0 Z" id="Rectangle" fill="#FFFFFF"></path>
                    <path d="M9.95577825,42 L21.6534685,42 L54.4090909,41.5 L54.4090909,56.2134131 C59.6159552,63.475512 56.7523189,70.4963283 45.8181818,77.2758621 C45.4314511,77.5156481 40.6587238,77.5156481 31.5,77.2758621 L9.95577825,76 L9.95577825,42 Z" id="Rectangle" fill="#FFFFFF"></path>
                    <path d="M31.5624782,77.2758621 L5.71989002,77.2758621 C2.55128634,77.2758621 0,74.7036858 0,71.5307455 L0,5.74511672 C0,2.57110623 2.57512385,0 5.75170012,0 L34.3636364,0 L34.3636364,17.1778479 C34.3636364,20.358737 36.9354126,22.8965517 40.1078592,22.8965517 L54.4090909,22.8965517 L54.4090909,50.0809501 C52.205259,49.1624115 49.786898,48.6551724 47.25,48.6551724 C36.9699719,48.6551724 28.6363636,56.9842193 28.6363636,67.2586207 C28.6363636,70.9468038 29.710217,74.3843124 31.5624782,77.2758621 L31.5624782,77.2758621 L31.5624782,77.2758621 Z M37.2272727,0 L37.2272727,17.1640298 C37.2272727,18.7493372 38.5187017,20.0344828 40.0645006,20.0344828 L54.4090909,20.0344828 L37.2272727,0 L37.2272727,0 Z M47.25,83 C55.9484853,83 63,75.9523449 63,67.2586207 C63,58.5648965 55.9484853,51.5172414 47.25,51.5172414 C38.5515147,51.5172414 31.5,58.5648965 31.5,67.2586207 C31.5,75.9523449 38.5515147,83 47.25,83 L47.25,83 Z M39.0784607,68.3722154 L41.1753101,66.2765137 L45.8181818,70.9168445 L54.7565081,61.9834103 L56.8533575,64.0791119 L45.8181818,75.1082475 L39.0784607,68.3722154 Z" id="document-checked" fill="#0075B8"></path>
                </g>
            </g>
        </g>
    </g>
</svg>